<?xml version="1.0" standalone="no"?>
<!DOCTYPE svg PUBLIC "-//W3C//DTD SVG 20010904//EN"
 "http://www.w3.org/TR/2001/REC-SVG-20010904/DTD/svg10.dtd">
<svg version="1.0" xmlns="http://www.w3.org/2000/svg"
 width="204.000000pt" height="204.000000pt" viewBox="0 0 204.000000 204.000000"
 preserveAspectRatio="xMidYMid meet">
<metadata>
Created by potrace 1.14, written by Peter Selinger 2001-2017
</metadata>
<g transform="translate(0.000000,204.000000) scale(0.100000,-0.100000)"
fill="#000000" stroke="none">
<path d="M366 1758 c-13 -18 -16 -56 -16 -200 0 -165 2 -180 20 -198 11 -11
31 -20 45 -20 14 0 34 9 45 20 18 18 20 33 20 160 l0 140 140 0 c127 0 142 2
160 20 24 24 25 48 4 78 -15 21 -20 22 -209 22 -189 0 -194 -1 -209 -22z"/>
<path d="M948 1769 c-23 -13 -24 -72 -2 -93 13 -13 43 -16 169 -16 179 0 193
6 185 75 -4 42 -15 45 -179 45 -87 0 -164 -5 -173 -11z"/>
<path d="M1458 1768 c-26 -20 -27 -67 -2 -92 12 -13 41 -16 155 -16 l139 0 0
-131 c0 -156 12 -188 68 -189 12 0 31 9 42 20 19 19 20 33 20 203 0 165 -2
186 -18 200 -16 15 -45 17 -203 17 -133 0 -190 -4 -201 -12z"/>
<path d="M465 1191 c-52 -23 -93 -71 -107 -126 -11 -40 -16 -45 -54 -54 -54
-14 -102 -54 -125 -106 -16 -35 -19 -68 -19 -261 0 -141 4 -233 12 -255 17
-52 46 -88 88 -109 37 -19 61 -20 475 -20 473 0 463 -1 516 57 50 53 51 60 51
318 0 210 -3 248 -18 280 -20 44 -63 77 -124 97 -36 12 -46 20 -51 44 -8 38
-32 85 -56 106 -47 43 -82 48 -320 48 -200 0 -233 -3 -268 -19z m500 -126 c21
-20 25 -34 25 -79 0 -71 27 -96 106 -96 83 0 84 -4 84 -255 0 -167 -3 -215
-14 -231 -14 -18 -32 -19 -421 -22 -355 -2 -411 -1 -431 13 l-24 15 0 225 c0
260 -2 255 86 255 77 0 104 27 104 104 0 47 4 57 26 75 25 20 39 21 231 21
203 0 204 0 228 -25z"/>
<path d="M653 871 c-85 -39 -129 -143 -98 -231 19 -55 48 -87 100 -111 51 -24
99 -24 150 0 79 37 115 93 115 179 0 133 -142 219 -267 163z m130 -133 c21
-25 22 -47 1 -76 -23 -33 -83 -27 -103 9 -39 71 48 129 102 67z"/>
<path d="M1769 1189 c-19 -19 -20 -30 -17 -176 3 -139 5 -156 22 -169 28 -20
63 -17 86 6 18 18 20 33 20 170 0 137 -2 152 -20 170 -26 26 -64 26 -91 -1z"/>
<path d="M1774 686 c-17 -13 -19 -29 -22 -160 l-3 -146 -137 0 c-75 0 -142 -4
-148 -8 -37 -24 -36 -91 1 -106 9 -3 99 -6 200 -6 179 0 184 1 199 22 13 18
16 56 16 200 0 165 -2 180 -20 198 -23 23 -58 26 -86 6z"/>
</g>
</svg>
