<svg id="visual" viewBox="0 0 1920 1080" width="1920" height="1080" xmlns="http://www.w3.org/2000/svg" xmlns:xlink="http://www.w3.org/1999/xlink" version="1.1"><rect x="0" y="0" width="1920" height="1080" fill="#fff"></rect><path d="M0 522L29.2 561.7C58.3 601.3 116.7 680.7 174.8 721.2C233 761.7 291 763.3 349.2 710.2C407.3 657 465.7 549 523.8 540.2C582 531.3 640 621.7 698.2 646.2C756.3 670.7 814.7 629.3 872.8 599.3C931 569.3 989 550.7 1047.2 514C1105.3 477.3 1163.7 422.7 1221.8 420C1280 417.3 1338 466.7 1396.2 483.3C1454.3 500 1512.7 484 1570.8 489.2C1629 494.3 1687 520.7 1745.2 530C1803.3 539.3 1861.7 531.7 1890.8 527.8L1920 524L1920 1081L1890.8 1081C1861.7 1081 1803.3 1081 1745.2 1081C1687 1081 1629 1081 1570.8 1081C1512.7 1081 1454.3 1081 1396.2 1081C1338 1081 1280 1081 1221.8 1081C1163.7 1081 1105.3 1081 1047.2 1081C989 1081 931 1081 872.8 1081C814.7 1081 756.3 1081 698.2 1081C640 1081 582 1081 523.8 1081C465.7 1081 407.3 1081 349.2 1081C291 1081 233 1081 174.8 1081C116.7 1081 58.3 1081 29.2 1081L0 1081Z" fill="#eb93b8"></path><path d="M0 527L29.2 511.5C58.3 496 116.7 465 174.8 450.8C233 436.7 291 439.3 349.2 449C407.3 458.7 465.7 475.3 523.8 520.7C582 566 640 640 698.2 646C756.3 652 814.7 590 872.8 567.7C931 545.3 989 562.7 1047.2 580C1105.3 597.3 1163.7 614.7 1221.8 613.2C1280 611.7 1338 591.3 1396.2 573C1454.3 554.7 1512.7 538.3 1570.8 520.2C1629 502 1687 482 1745.2 514.8C1803.3 547.7 1861.7 633.3 1890.8 676.2L1920 719L1920 1081L1890.8 1081C1861.7 1081 1803.3 1081 1745.2 1081C1687 1081 1629 1081 1570.8 1081C1512.7 1081 1454.3 1081 1396.2 1081C1338 1081 1280 1081 1221.8 1081C1163.7 1081 1105.3 1081 1047.2 1081C989 1081 931 1081 872.8 1081C814.7 1081 756.3 1081 698.2 1081C640 1081 582 1081 523.8 1081C465.7 1081 407.3 1081 349.2 1081C291 1081 233 1081 174.8 1081C116.7 1081 58.3 1081 29.2 1081L0 1081Z" fill="#e689aa"></path><path d="M0 798L29.2 757C58.3 716 116.7 634 174.8 600.2C233 566.3 291 580.7 349.2 603.8C407.3 627 465.7 659 523.8 654.5C582 650 640 609 698.2 580.8C756.3 552.7 814.7 537.3 872.8 570.5C931 603.7 989 685.3 1047.2 739.7C1105.3 794 1163.7 821 1221.8 808C1280 795 1338 742 1396.2 730C1454.3 718 1512.7 747 1570.8 733C1629 719 1687 662 1745.2 654.5C1803.3 647 1861.7 689 1890.8 710L1920 731L1920 1081L1890.8 1081C1861.7 1081 1803.3 1081 1745.2 1081C1687 1081 1629 1081 1570.8 1081C1512.7 1081 1454.3 1081 1396.2 1081C1338 1081 1280 1081 1221.8 1081C1163.7 1081 1105.3 1081 1047.2 1081C989 1081 931 1081 872.8 1081C814.7 1081 756.3 1081 698.2 1081C640 1081 582 1081 523.8 1081C465.7 1081 407.3 1081 349.2 1081C291 1081 233 1081 174.8 1081C116.7 1081 58.3 1081 29.2 1081L0 1081Z" fill="#e17f9c"></path><path d="M0 615L29.2 647.8C58.3 680.7 116.7 746.3 174.8 755.2C233 764 291 716 349.2 689.7C407.3 663.3 465.7 658.7 523.8 656.2C582 653.7 640 653.3 698.2 675.3C756.3 697.3 814.7 741.7 872.8 755.3C931 769 989 752 1047.2 731.2C1105.3 710.3 1163.7 685.7 1221.8 663.5C1280 641.3 1338 621.7 1396.2 644.8C1454.3 668 1512.7 734 1570.8 765.5C1629 797 1687 794 1745.2 760C1803.3 726 1861.7 661 1890.8 628.5L1920 596L1920 1081L1890.8 1081C1861.7 1081 1803.3 1081 1745.2 1081C1687 1081 1629 1081 1570.8 1081C1512.7 1081 1454.3 1081 1396.2 1081C1338 1081 1280 1081 1221.8 1081C1163.7 1081 1105.3 1081 1047.2 1081C989 1081 931 1081 872.8 1081C814.7 1081 756.3 1081 698.2 1081C640 1081 582 1081 523.8 1081C465.7 1081 407.3 1081 349.2 1081C291 1081 233 1081 174.8 1081C116.7 1081 58.3 1081 29.2 1081L0 1081Z" fill="#db768d"></path><path d="M0 855L29.2 828.8C58.3 802.7 116.7 750.3 174.8 737.3C233 724.3 291 750.7 349.2 745.8C407.3 741 465.7 705 523.8 686.5C582 668 640 667 698.2 662.2C756.3 657.3 814.7 648.7 872.8 691.8C931 735 989 830 1047.2 861.7C1105.3 893.3 1163.7 861.7 1221.8 820C1280 778.3 1338 726.7 1396.2 731.2C1454.3 735.7 1512.7 796.3 1570.8 834C1629 871.7 1687 886.3 1745.2 854.2C1803.3 822 1861.7 743 1890.8 703.5L1920 664L1920 1081L1890.8 1081C1861.7 1081 1803.3 1081 1745.2 1081C1687 1081 1629 1081 1570.8 1081C1512.7 1081 1454.3 1081 1396.2 1081C1338 1081 1280 1081 1221.8 1081C1163.7 1081 1105.3 1081 1047.2 1081C989 1081 931 1081 872.8 1081C814.7 1081 756.3 1081 698.2 1081C640 1081 582 1081 523.8 1081C465.7 1081 407.3 1081 349.2 1081C291 1081 233 1081 174.8 1081C116.7 1081 58.3 1081 29.2 1081L0 1081Z" fill="#d46d7f"></path><path d="M0 747L29.2 765.7C58.3 784.3 116.7 821.7 174.8 843.8C233 866 291 873 349.2 871.2C407.3 869.3 465.7 858.7 523.8 855.5C582 852.3 640 856.7 698.2 862C756.3 867.3 814.7 873.7 872.8 886C931 898.3 989 916.7 1047.2 903.8C1105.3 891 1163.7 847 1221.8 838.5C1280 830 1338 857 1396.2 846.7C1454.3 836.3 1512.7 788.7 1570.8 773.3C1629 758 1687 775 1745.2 777.3C1803.3 779.7 1861.7 767.3 1890.8 761.2L1920 755L1920 1081L1890.8 1081C1861.7 1081 1803.3 1081 1745.2 1081C1687 1081 1629 1081 1570.8 1081C1512.7 1081 1454.3 1081 1396.2 1081C1338 1081 1280 1081 1221.8 1081C1163.7 1081 1105.3 1081 1047.2 1081C989 1081 931 1081 872.8 1081C814.7 1081 756.3 1081 698.2 1081C640 1081 582 1081 523.8 1081C465.7 1081 407.3 1081 349.2 1081C291 1081 233 1081 174.8 1081C116.7 1081 58.3 1081 29.2 1081L0 1081Z" fill="#cd6471"></path><path d="M0 837L29.2 838.3C58.3 839.7 116.7 842.3 174.8 851.7C233 861 291 877 349.2 889.8C407.3 902.7 465.7 912.3 523.8 905.5C582 898.7 640 875.3 698.2 868C756.3 860.7 814.7 869.3 872.8 862.8C931 856.3 989 834.7 1047.2 818.3C1105.3 802 1163.7 791 1221.8 802.7C1280 814.3 1338 848.7 1396.2 885.8C1454.3 923 1512.7 963 1570.8 957.5C1629 952 1687 901 1745.2 876.5C1803.3 852 1861.7 854 1890.8 855L1920 856L1920 1081L1890.8 1081C1861.7 1081 1803.3 1081 1745.2 1081C1687 1081 1629 1081 1570.8 1081C1512.7 1081 1454.3 1081 1396.2 1081C1338 1081 1280 1081 1221.8 1081C1163.7 1081 1105.3 1081 1047.2 1081C989 1081 931 1081 872.8 1081C814.7 1081 756.3 1081 698.2 1081C640 1081 582 1081 523.8 1081C465.7 1081 407.3 1081 349.2 1081C291 1081 233 1081 174.8 1081C116.7 1081 58.3 1081 29.2 1081L0 1081Z" fill="#c55c62"></path><path d="M0 1017L29.2 1019.8C58.3 1022.7 116.7 1028.3 174.8 1028.3C233 1028.3 291 1022.7 349.2 1012.5C407.3 1002.3 465.7 987.7 523.8 968.3C582 949 640 925 698.2 910.7C756.3 896.3 814.7 891.7 872.8 902.3C931 913 989 939 1047.2 962.2C1105.3 985.3 1163.7 1005.7 1221.8 1000.5C1280 995.3 1338 964.7 1396.2 943.8C1454.3 923 1512.7 912 1570.8 920.5C1629 929 1687 957 1745.2 956.8C1803.3 956.7 1861.7 928.3 1890.8 914.2L1920 900L1920 1081L1890.8 1081C1861.7 1081 1803.3 1081 1745.2 1081C1687 1081 1629 1081 1570.8 1081C1512.7 1081 1454.3 1081 1396.2 1081C1338 1081 1280 1081 1221.8 1081C1163.7 1081 1105.3 1081 1047.2 1081C989 1081 931 1081 872.8 1081C814.7 1081 756.3 1081 698.2 1081C640 1081 582 1081 523.8 1081C465.7 1081 407.3 1081 349.2 1081C291 1081 233 1081 174.8 1081C116.7 1081 58.3 1081 29.2 1081L0 1081Z" fill="#bc5454"></path><path d="M0 933L29.2 948.8C58.3 964.7 116.7 996.3 174.8 1005.5C233 1014.7 291 1001.3 349.2 990.5C407.3 979.7 465.7 971.3 523.8 983.7C582 996 640 1029 698.2 1027.7C756.3 1026.3 814.7 990.7 872.8 977.7C931 964.7 989 974.3 1047.2 981.2C1105.3 988 1163.7 992 1221.8 993.2C1280 994.3 1338 992.7 1396.2 1004.7C1454.3 1016.7 1512.7 1042.3 1570.8 1036.3C1629 1030.3 1687 992.7 1745.2 986.2C1803.3 979.7 1861.7 1004.3 1890.8 1016.7L1920 1029L1920 1081L1890.8 1081C1861.7 1081 1803.3 1081 1745.2 1081C1687 1081 1629 1081 1570.8 1081C1512.7 1081 1454.3 1081 1396.2 1081C1338 1081 1280 1081 1221.8 1081C1163.7 1081 1105.3 1081 1047.2 1081C989 1081 931 1081 872.8 1081C814.7 1081 756.3 1081 698.2 1081C640 1081 582 1081 523.8 1081C465.7 1081 407.3 1081 349.2 1081C291 1081 233 1081 174.8 1081C116.7 1081 58.3 1081 29.2 1081L0 1081Z" fill="#b34d46"></path></svg>